<svg width="22" height="25" viewBox="0 0 22 25" fill="none" xmlns="http://www.w3.org/2000/svg">
<path d="M8.88806 10.2101C8.20406 10.2101 7.66406 10.8101 7.66406 11.5421C7.66406 12.2741 8.21606 12.8741 8.88806 12.8741C9.57206 12.8741 10.1121 12.2741 10.1121 11.5421C10.1241 10.8101 9.57206 10.2101 8.88806 10.2101ZM13.2681 10.2101C12.5841 10.2101 12.0441 10.8101 12.0441 11.5421C12.0441 12.2741 12.5961 12.8741 13.2681 12.8741C13.9521 12.8741 14.4921 12.2741 14.4921 11.5421C14.4921 10.8101 13.9521 10.2101 13.2681 10.2101Z" fill="#7289DA"/>
<path d="M19.1005 0.14209H3.02055C1.66455 0.14209 0.560547 1.24609 0.560547 2.61409V18.8381C0.560547 20.2061 1.66455 21.3101 3.02055 21.3101H16.6285L15.9925 19.0901L17.5285 20.5181L18.9805 21.8621L21.5605 24.1421V2.61409C21.5605 1.24609 20.4565 0.14209 19.1005 0.14209ZM14.4685 15.8141C14.4685 15.8141 14.0365 15.2981 13.6765 14.8421C15.2485 14.3981 15.8485 13.4141 15.8485 13.4141C15.3565 13.7381 14.8885 13.9661 14.4685 14.1221C13.8685 14.3741 13.2925 14.5421 12.7285 14.6381C11.5765 14.8541 10.5205 14.7941 9.62055 14.6261C8.93655 14.4941 8.34855 14.3021 7.85655 14.1101C7.58055 14.0021 7.28055 13.8701 6.98055 13.7021C6.94455 13.6781 6.90855 13.6661 6.87255 13.6421C6.84855 13.6301 6.83655 13.6181 6.82455 13.6061C6.60855 13.4861 6.48855 13.4021 6.48855 13.4021C6.48855 13.4021 7.06455 14.3621 8.58855 14.8181C8.22855 15.2741 7.78455 15.8141 7.78455 15.8141C5.13255 15.7301 4.12455 13.9901 4.12455 13.9901C4.12455 10.1261 5.85255 6.99409 5.85255 6.99409C7.58055 5.69809 9.22455 5.73409 9.22455 5.73409L9.34455 5.87809C7.18455 6.50209 6.18855 7.45009 6.18855 7.45009C6.18855 7.45009 6.45255 7.30609 6.89655 7.10209C8.18055 6.53809 9.20055 6.38209 9.62055 6.34609C9.69255 6.33409 9.75255 6.32209 9.82455 6.32209C10.5565 6.22609 11.3845 6.20209 12.2485 6.29809C13.3885 6.43009 14.6125 6.76609 15.8605 7.45009C15.8605 7.45009 14.9125 6.55009 12.8725 5.92609L13.0405 5.73409C13.0405 5.73409 14.6845 5.69809 16.4125 6.99409C16.4125 6.99409 18.1405 10.1261 18.1405 13.9901C18.1405 13.9901 17.1205 15.7301 14.4685 15.8141Z" fill="#7289DA"/>
</svg>
